<svg width="899" height="658" viewBox="0 0 899 658" fill="none" xmlns="http://www.w3.org/2000/svg">
<path d="M274.272 123.694L309.272 184.315L225.916 328.694" stroke="#00D0FF" stroke-width="10"/>
<path d="M296.272 206.694L248.272 123.694" stroke="#00D0FF" stroke-width="10"/>
<path d="M285.272 232.694L222.272 123.694" stroke="#00D0FF" stroke-width="10"/>
<path d="M272.272 253.694L196.272 122.694" stroke="#00D0FF" stroke-width="10"/>
<path d="M258.272 273.694L170.272 122.694" stroke="#00D0FF" stroke-width="10"/>
<path d="M276.837 420.669L206.836 420.669L123.48 276.291" stroke="#00D0FF" stroke-width="10"/>
<path d="M193.956 398.222L289.836 398.153" stroke="#00D0FF" stroke-width="10"/>
<path d="M176.94 375.695L302.836 375.636" stroke="#00D0FF" stroke-width="10"/>
<path d="M165.253 353.937L316.703 353.619" stroke="#00D0FF" stroke-width="10"/>
<path d="M154.933 331.813L329.703 331.103" stroke="#00D0FF" stroke-width="10"/>
<path d="M18.366 274.402L53.3661 213.78L220.08 213.78" stroke="#00D0FF" stroke-width="10"/>
<path d="M79.2462 213.849L31.366 296.919" stroke="#00D0FF" stroke-width="10"/>
<path d="M107.263 210.376L44.366 319.435" stroke="#00D0FF" stroke-width="10"/>
<path d="M131.949 211.134L56.5 342.452" stroke="#00D0FF" stroke-width="10"/>
<path d="M156.27 213.259L69.5 364.969" stroke="#00D0FF" stroke-width="10"/>
<path d="M361.808 271.26L326.808 331.882L160.094 331.882" stroke="#00D0FF" stroke-width="10"/>
<path d="M300.928 331.813L348.808 248.744" stroke="#00D0FF" stroke-width="10"/>
<path d="M272.911 335.286L335.808 226.227" stroke="#00D0FF" stroke-width="10"/>
<path d="M248.224 334.528L323.674 203.21" stroke="#00D0FF" stroke-width="10"/>
<path d="M223.904 332.404L310.674 180.694" stroke="#00D0FF" stroke-width="10"/>
<path d="M105.272 422.694L70.2724 362.072L153.629 217.694" stroke="#00D0FF" stroke-width="10"/>
<path d="M83.2723 339.694L131.272 422.694" stroke="#00D0FF" stroke-width="10"/>
<path d="M94.2724 313.694L157.272 422.694" stroke="#00D0FF" stroke-width="10"/>
<path d="M107.272 292.694L183.272 423.694" stroke="#00D0FF" stroke-width="10"/>
<path d="M121.272 272.694L209.272 423.694" stroke="#00D0FF" stroke-width="10"/>
<path d="M102.395 124.811L172.395 124.811L255.752 269.189" stroke="#00D0FF" stroke-width="10"/>
<path d="M185.275 147.258L89.395 147.327" stroke="#00D0FF" stroke-width="10"/>
<path d="M202.292 169.785L76.395 169.844" stroke="#00D0FF" stroke-width="10"/>
<path d="M213.978 191.543L62.5289 191.861" stroke="#00D0FF" stroke-width="10"/>
<path d="M224.299 213.667L49.5289 214.377" stroke="#00D0FF" stroke-width="10"/>
<path d="M500.272 329.694L535.272 390.315L451.916 534.694" stroke="#696969" stroke-width="10"/>
<path d="M522.272 412.694L474.272 329.694" stroke="#696969" stroke-width="10"/>
<path d="M511.272 438.694L448.272 329.694" stroke="#696969" stroke-width="10"/>
<path d="M498.272 459.694L422.272 328.694" stroke="#696969" stroke-width="10"/>
<path d="M484.272 479.694L396.272 328.694" stroke="#696969" stroke-width="10"/>
<path d="M502.837 626.669L432.836 626.669L349.48 482.291" stroke="#696969" stroke-width="10"/>
<path d="M419.956 604.222L515.836 604.153" stroke="#696969" stroke-width="10"/>
<path d="M402.94 581.695L528.836 581.636" stroke="#696969" stroke-width="10"/>
<path d="M391.253 559.937L542.703 559.619" stroke="#696969" stroke-width="10"/>
<path d="M380.933 537.813L555.703 537.103" stroke="#696969" stroke-width="10"/>
<path d="M244.366 480.402L279.366 419.78L446.08 419.78" stroke="#696969" stroke-width="10"/>
<path d="M305.246 419.849L257.366 502.919" stroke="#696969" stroke-width="10"/>
<path d="M333.263 416.376L270.366 525.435" stroke="#696969" stroke-width="10"/>
<path d="M357.949 417.134L282.5 548.452" stroke="#696969" stroke-width="10"/>
<path d="M382.27 419.259L295.5 570.969" stroke="#696969" stroke-width="10"/>
<path d="M587.808 477.26L552.808 537.882L386.094 537.882" stroke="#696969" stroke-width="10"/>
<path d="M526.928 537.813L574.808 454.744" stroke="#696969" stroke-width="10"/>
<path d="M498.911 541.286L561.808 432.227" stroke="#696969" stroke-width="10"/>
<path d="M474.224 540.528L549.674 409.21" stroke="#696969" stroke-width="10"/>
<path d="M449.904 538.404L536.674 386.694" stroke="#696969" stroke-width="10"/>
<path d="M331.272 628.694L296.272 568.072L379.629 423.694" stroke="#696969" stroke-width="10"/>
<path d="M309.272 545.694L357.272 628.694" stroke="#696969" stroke-width="10"/>
<path d="M320.272 519.694L383.272 628.694" stroke="#696969" stroke-width="10"/>
<path d="M333.272 498.694L409.272 629.694" stroke="#696969" stroke-width="10"/>
<path d="M347.272 478.694L435.272 629.694" stroke="#696969" stroke-width="10"/>
<path d="M328.395 330.811L398.395 330.811L481.752 475.189" stroke="#696969" stroke-width="10"/>
<path d="M411.275 353.258L315.395 353.327" stroke="#696969" stroke-width="10"/>
<path d="M428.292 375.785L302.395 375.844" stroke="#696969" stroke-width="10"/>
<path d="M439.978 397.543L288.529 397.861" stroke="#696969" stroke-width="10"/>
<path d="M450.299 419.667L275.529 420.377" stroke="#696969" stroke-width="10"/>
<path d="M566.272 29.6936L601.272 90.3154L517.916 234.694" stroke="#D3FF00" stroke-width="10"/>
<path d="M588.272 112.694L540.272 29.6936" stroke="#D3FF00" stroke-width="10"/>
<path d="M577.272 138.694L514.272 29.6936" stroke="#D3FF00" stroke-width="10"/>
<path d="M564.272 159.694L488.272 28.6936" stroke="#D3FF00" stroke-width="10"/>
<path d="M550.272 179.694L462.272 28.6936" stroke="#D3FF00" stroke-width="10"/>
<path d="M568.837 326.669L498.836 326.669L415.48 182.291" stroke="#D3FF00" stroke-width="10"/>
<path d="M485.956 304.222L581.836 304.153" stroke="#D3FF00" stroke-width="10"/>
<path d="M468.94 281.695L594.836 281.636" stroke="#D3FF00" stroke-width="10"/>
<path d="M457.253 259.937L608.703 259.619" stroke="#D3FF00" stroke-width="10"/>
<path d="M446.933 237.813L621.703 237.103" stroke="#D3FF00" stroke-width="10"/>
<path d="M310.366 180.402L345.366 119.78L512.08 119.78" stroke="#D3FF00" stroke-width="10"/>
<path d="M371.246 119.849L323.366 202.919" stroke="#D3FF00" stroke-width="10"/>
<path d="M399.263 116.376L336.366 225.435" stroke="#D3FF00" stroke-width="10"/>
<path d="M423.949 117.134L348.5 248.452" stroke="#D3FF00" stroke-width="10"/>
<path d="M448.27 119.259L361.5 270.969" stroke="#D3FF00" stroke-width="10"/>
<path d="M653.808 177.26L618.808 237.882L452.094 237.882" stroke="#D3FF00" stroke-width="10"/>
<path d="M592.928 237.813L640.808 154.744" stroke="#D3FF00" stroke-width="10"/>
<path d="M564.911 241.286L627.808 132.227" stroke="#D3FF00" stroke-width="10"/>
<path d="M540.224 240.528L615.674 109.21" stroke="#D3FF00" stroke-width="10"/>
<path d="M515.904 238.404L602.674 86.6936" stroke="#D3FF00" stroke-width="10"/>
<path d="M397.272 328.694L362.272 268.072L445.629 123.694" stroke="#D3FF00" stroke-width="10"/>
<path d="M375.272 245.694L423.272 328.694" stroke="#D3FF00" stroke-width="10"/>
<path d="M386.272 219.694L449.272 328.694" stroke="#D3FF00" stroke-width="10"/>
<path d="M399.272 198.694L475.272 329.694" stroke="#D3FF00" stroke-width="10"/>
<path d="M413.272 178.694L501.272 329.694" stroke="#D3FF00" stroke-width="10"/>
<path d="M394.395 30.8108L464.395 30.8108L547.752 175.189" stroke="#D3FF00" stroke-width="10"/>
<path d="M477.275 53.2582L381.395 53.3274" stroke="#D3FF00" stroke-width="10"/>
<path d="M494.292 75.7847L368.395 75.8442" stroke="#D3FF00" stroke-width="10"/>
<path d="M505.978 97.5429L354.529 97.8608" stroke="#D3FF00" stroke-width="10"/>
<path d="M516.299 119.667L341.529 120.377" stroke="#D3FF00" stroke-width="10"/>
<path d="M792.272 236.694L827.272 297.315L743.916 441.694" stroke="#DD0909" stroke-width="10"/>
<path d="M814.272 319.694L766.272 236.694" stroke="#DD0909" stroke-width="10"/>
<path d="M803.272 345.694L740.272 236.694" stroke="#DD0909" stroke-width="10"/>
<path d="M790.272 366.694L714.272 235.694" stroke="#DD0909" stroke-width="10"/>
<path d="M776.272 386.694L688.272 235.694" stroke="#DD0909" stroke-width="10"/>
<path d="M794.837 533.669L724.836 533.669L641.48 389.291" stroke="#DD0909" stroke-width="10"/>
<path d="M711.956 511.222L807.836 511.153" stroke="#DD0909" stroke-width="10"/>
<path d="M694.94 488.695L820.836 488.636" stroke="#DD0909" stroke-width="10"/>
<path d="M683.253 466.937L834.703 466.619" stroke="#DD0909" stroke-width="10"/>
<path d="M672.933 444.813L847.703 444.103" stroke="#DD0909" stroke-width="10"/>
<path d="M536.366 387.402L571.366 326.78L738.08 326.78" stroke="#DD0909" stroke-width="10"/>
<path d="M597.246 326.849L549.366 409.919" stroke="#DD0909" stroke-width="10"/>
<path d="M625.263 323.376L562.366 432.435" stroke="#DD0909" stroke-width="10"/>
<path d="M649.949 324.134L574.5 455.452" stroke="#DD0909" stroke-width="10"/>
<path d="M674.27 326.259L587.5 477.969" stroke="#DD0909" stroke-width="10"/>
<path d="M879.808 384.26L844.808 444.882L678.094 444.882" stroke="#DD0909" stroke-width="10"/>
<path d="M818.928 444.813L866.808 361.744" stroke="#DD0909" stroke-width="10"/>
<path d="M790.911 448.286L853.808 339.227" stroke="#DD0909" stroke-width="10"/>
<path d="M766.224 447.528L841.674 316.21" stroke="#DD0909" stroke-width="10"/>
<path d="M741.904 445.404L828.674 293.694" stroke="#DD0909" stroke-width="10"/>
<path d="M623.272 535.694L588.272 475.072L671.629 330.694" stroke="#DD0909" stroke-width="10"/>
<path d="M601.272 452.694L649.272 535.694" stroke="#DD0909" stroke-width="10"/>
<path d="M612.272 426.694L675.272 535.694" stroke="#DD0909" stroke-width="10"/>
<path d="M625.272 405.694L701.272 536.694" stroke="#DD0909" stroke-width="10"/>
<path d="M639.272 385.694L727.272 536.694" stroke="#DD0909" stroke-width="10"/>
<path d="M620.395 237.811L690.395 237.811L773.752 382.189" stroke="#DD0909" stroke-width="10"/>
<path d="M703.275 260.258L607.395 260.327" stroke="#DD0909" stroke-width="10"/>
<path d="M720.292 282.785L594.395 282.844" stroke="#DD0909" stroke-width="10"/>
<path d="M731.978 304.543L580.529 304.861" stroke="#DD0909" stroke-width="10"/>
<path d="M742.299 326.667L567.529 327.377" stroke="#DD0909" stroke-width="10"/>
</svg>
